ISO-10303-21;
HEADER;
FILE_DESCRIPTION(('KiCad electronic assembly'),'2;1');
FILE_NAME('Battery Holder.step','2026-09-06T18:48:17',('Pcbnew'),(
    'Kicad'),'Open CASCADE STEP processor 7.9','KiCad to STEP converter'
  ,'Unknown');
FILE_SCHEMA(('AUTOMOTIVE_DESIGN { 1 0 10303 214 1 1 1 1 }'));
ENDSEC;
DATA;
#1 = APPLICATION_PROTOCOL_DEFINITION('international standard',
  'automotive_design',2000,#2);
#2 = APPLICATION_CONTEXT(
  'core data for automotive mechanical design processes');
#3 = SHAPE_DEFINITION_REPRESENTATION(#4,#10);
#4 = PRODUCT_DEFINITION_SHAPE('','',#5);
#5 = PRODUCT_DEFINITION('design','',#6,#9);
#6 = PRODUCT_DEFINITION_FORMATION('','',#7);
#7 = PRODUCT('Battery Holder 1','Battery Holder 1','',(#8));
#8 = PRODUCT_CONTEXT('',#2,'mechanical');
#9 = PRODUCT_DEFINITION_CONTEXT('part definition',#2,'design');
#10 = SHAPE_REPRESENTATION('',(#11,#15),#19);
#11 = AXIS2_PLACEMENT_3D('',#12,#13,#14);
#12 = CARTESIAN_POINT('',(0.,0.,0.));
#13 = DIRECTION('',(0.,0.,1.));
#14 = DIRECTION('',(1.,0.,-0.));
#15 = AXIS2_PLACEMENT_3D('',#16,#17,#18);
#16 = CARTESIAN_POINT('',(0.,0.,0.));
#17 = DIRECTION('',(0.,0.,1.));
#18 = DIRECTION('',(1.,0.,-0.));
#19 = ( GEOMETRIC_REPRESENTATION_CONTEXT(3) 
GLOBAL_UNCERTAINTY_ASSIGNED_CONTEXT((#23)) GLOBAL_UNIT_ASSIGNED_CONTEXT(
(#20,#21,#22)) REPRESENTATION_CONTEXT('Context #1',
  '3D Context with UNIT and UNCERTAINTY') );
#20 = ( LENGTH_UNIT() NAMED_UNIT(*) SI_UNIT(.MILLI.,.METRE.) );
#21 = ( NAMED_UNIT(*) PLANE_ANGLE_UNIT() SI_UNIT($,.RADIAN.) );
#22 = ( NAMED_UNIT(*) SI_UNIT($,.STERADIAN.) SOLID_ANGLE_UNIT() );
#23 = UNCERTAINTY_MEASURE_WITH_UNIT(LENGTH_MEASURE(1.E-07),#20,
  'distance_accuracy_value','confusion accuracy');
#24 = PRODUCT_RELATED_PRODUCT_CATEGORY('part',$,(#7));
#25 = SHAPE_DEFINITION_REPRESENTATION(#26,#32);
#26 = PRODUCT_DEFINITION_SHAPE('','',#27);
#27 = PRODUCT_DEFINITION('design','',#28,#31);
#28 = PRODUCT_DEFINITION_FORMATION('','',#29);
#29 = PRODUCT('Battery Holder_PCB','Battery Holder_PCB','',(#30));
#30 = PRODUCT_CONTEXT('',#2,'mechanical');
#31 = PRODUCT_DEFINITION_CONTEXT('part definition',#2,'design');
#32 = ADVANCED_BREP_SHAPE_REPRESENTATION('',(#11,#33),#869);
#33 = MANIFOLD_SOLID_BREP('',#34);
#34 = CLOSED_SHELL('',(#35,#75,#106,#137,#344,#551,#563,#580,#597,#619,
    #636,#648,#665,#682,#699,#716,#738,#755,#767,#784,#801,#818,#835,
    #852));
#35 = ADVANCED_FACE('',(#36),#70,.T.);
#36 = FACE_BOUND('',#37,.T.);
#37 = EDGE_LOOP('',(#38,#48,#56,#64));
#38 = ORIENTED_EDGE('',*,*,#39,.T.);
#39 = EDGE_CURVE('',#40,#42,#44,.T.);
#40 = VERTEX_POINT('',#41);
#41 = CARTESIAN_POINT('',(61.2902,0.1016,0.));
#42 = VERTEX_POINT('',#43);
#43 = CARTESIAN_POINT('',(61.2902,0.1016,20.91));
#44 = LINE('',#45,#46);
#45 = CARTESIAN_POINT('',(61.2902,0.1016,0.));
#46 = VECTOR('',#47,1.);
#47 = DIRECTION('',(0.,0.,1.));
#48 = ORIENTED_EDGE('',*,*,#49,.T.);
#49 = EDGE_CURVE('',#42,#50,#52,.T.);
#50 = VERTEX_POINT('',#51);
#51 = CARTESIAN_POINT('',(0.1016,0.1016,20.91));
#52 = LINE('',#53,#54);
#53 = CARTESIAN_POINT('',(61.2902,0.1016,20.91));
#54 = VECTOR('',#55,1.);
#55 = DIRECTION('',(-1.,0.,0.));
#56 = ORIENTED_EDGE('',*,*,#57,.F.);
#57 = EDGE_CURVE('',#58,#50,#60,.T.);
#58 = VERTEX_POINT('',#59);
#59 = CARTESIAN_POINT('',(0.1016,0.1016,0.));
#60 = LINE('',#61,#62);
#61 = CARTESIAN_POINT('',(0.1016,0.1016,0.));
#62 = VECTOR('',#63,1.);
#63 = DIRECTION('',(0.,0.,1.));
#64 = ORIENTED_EDGE('',*,*,#65,.F.);
#65 = EDGE_CURVE('',#40,#58,#66,.T.);
#66 = LINE('',#67,#68);
#67 = CARTESIAN_POINT('',(61.2902,0.1016,0.));
#68 = VECTOR('',#69,1.);
#69 = DIRECTION('',(-1.,0.,0.));
#70 = PLANE('',#71);
#71 = AXIS2_PLACEMENT_3D('',#72,#73,#74);
#72 = CARTESIAN_POINT('',(61.2902,0.1016,0.));
#73 = DIRECTION('',(0.,-1.,0.));
#74 = DIRECTION('',(-1.,0.,0.));
#75 = ADVANCED_FACE('',(#76),#101,.T.);
#76 = FACE_BOUND('',#77,.T.);
#77 = EDGE_LOOP('',(#78,#88,#94,#95));
#78 = ORIENTED_EDGE('',*,*,#79,.T.);
#79 = EDGE_CURVE('',#80,#82,#84,.T.);
#80 = VERTEX_POINT('',#81);
#81 = CARTESIAN_POINT('',(61.2902,103.6574,0.));
#82 = VERTEX_POINT('',#83);
#83 = CARTESIAN_POINT('',(61.2902,103.6574,20.91));
#84 = LINE('',#85,#86);
#85 = CARTESIAN_POINT('',(61.2902,103.6574,0.));
#86 = VECTOR('',#87,1.);
#87 = DIRECTION('',(0.,0.,1.));
#88 = ORIENTED_EDGE('',*,*,#89,.T.);
#89 = EDGE_CURVE('',#82,#42,#90,.T.);
#90 = LINE('',#91,#92);
#91 = CARTESIAN_POINT('',(61.2902,103.6574,20.91));
#92 = VECTOR('',#93,1.);
#93 = DIRECTION('',(0.,-1.,0.));
#94 = ORIENTED_EDGE('',*,*,#39,.F.);
#95 = ORIENTED_EDGE('',*,*,#96,.F.);
#96 = EDGE_CURVE('',#80,#40,#97,.T.);
#97 = LINE('',#98,#99);
#98 = CARTESIAN_POINT('',(61.2902,103.6574,0.));
#99 = VECTOR('',#100,1.);
#100 = DIRECTION('',(0.,-1.,0.));
#101 = PLANE('',#102);
#102 = AXIS2_PLACEMENT_3D('',#103,#104,#105);
#103 = CARTESIAN_POINT('',(61.2902,103.6574,0.));
#104 = DIRECTION('',(1.,0.,-0.));
#105 = DIRECTION('',(0.,-1.,0.));
#106 = ADVANCED_FACE('',(#107),#132,.T.);
#107 = FACE_BOUND('',#108,.T.);
#108 = EDGE_LOOP('',(#109,#110,#118,#126));
#109 = ORIENTED_EDGE('',*,*,#57,.T.);
#110 = ORIENTED_EDGE('',*,*,#111,.T.);
#111 = EDGE_CURVE('',#50,#112,#114,.T.);
#112 = VERTEX_POINT('',#113);
#113 = CARTESIAN_POINT('',(0.1016,103.6574,20.91));
#114 = LINE('',#115,#116);
#115 = CARTESIAN_POINT('',(0.1016,0.1016,20.91));
#116 = VECTOR('',#117,1.);
#117 = DIRECTION('',(0.,1.,0.));
#118 = ORIENTED_EDGE('',*,*,#119,.F.);
#119 = EDGE_CURVE('',#120,#112,#122,.T.);
#120 = VERTEX_POINT('',#121);
#121 = CARTESIAN_POINT('',(0.1016,103.6574,0.));
#122 = LINE('',#123,#124);
#123 = CARTESIAN_POINT('',(0.1016,103.6574,0.));
#124 = VECTOR('',#125,1.);
#125 = DIRECTION('',(0.,0.,1.));
#126 = ORIENTED_EDGE('',*,*,#127,.F.);
#127 = EDGE_CURVE('',#58,#120,#128,.T.);
#128 = LINE('',#129,#130);
#129 = CARTESIAN_POINT('',(0.1016,0.1016,0.));
#130 = VECTOR('',#131,1.);
#131 = DIRECTION('',(0.,1.,0.));
#132 = PLANE('',#133);
#133 = AXIS2_PLACEMENT_3D('',#134,#135,#136);
#134 = CARTESIAN_POINT('',(0.1016,0.1016,0.));
#135 = DIRECTION('',(-1.,0.,0.));
#136 = DIRECTION('',(0.,1.,0.));
#137 = ADVANCED_FACE('',(#138,#149,#160,#171,#200,#211,#222,#233,#244,
    #273,#284,#295,#306,#317,#328),#339,.F.);
#138 = FACE_BOUND('',#139,.F.);
#139 = EDGE_LOOP('',(#140,#141,#142,#148));
#140 = ORIENTED_EDGE('',*,*,#65,.F.);
#141 = ORIENTED_EDGE('',*,*,#96,.F.);
#142 = ORIENTED_EDGE('',*,*,#143,.F.);
#143 = EDGE_CURVE('',#120,#80,#144,.T.);
#144 = LINE('',#145,#146);
#145 = CARTESIAN_POINT('',(0.1016,103.6574,0.));
#146 = VECTOR('',#147,1.);
#147 = DIRECTION('',(1.,0.,0.));
#148 = ORIENTED_EDGE('',*,*,#127,.F.);
#149 = FACE_BOUND('',#150,.F.);
#150 = EDGE_LOOP('',(#151));
#151 = ORIENTED_EDGE('',*,*,#152,.T.);
#152 = EDGE_CURVE('',#153,#153,#155,.T.);
#153 = VERTEX_POINT('',#154);
#154 = CARTESIAN_POINT('',(3.81508,1.006045,0.));
#155 = CIRCLE('',#156,1.599995);
#156 = AXIS2_PLACEMENT_3D('',#157,#158,#159);
#157 = CARTESIAN_POINT('',(3.81508,2.60604,0.));
#158 = DIRECTION('',(-0.,0.,-1.));
#159 = DIRECTION('',(-0.,-1.,0.));
#160 = FACE_BOUND('',#161,.F.);
#161 = EDGE_LOOP('',(#162));
#162 = ORIENTED_EDGE('',*,*,#163,.T.);
#163 = EDGE_CURVE('',#164,#164,#166,.T.);
#164 = VERTEX_POINT('',#165);
#165 = CARTESIAN_POINT('',(11.20394,7.63016,0.));
#166 = CIRCLE('',#167,0.4826);
#167 = AXIS2_PLACEMENT_3D('',#168,#169,#170);
#168 = CARTESIAN_POINT('',(11.20394,8.11276,0.));
#169 = DIRECTION('',(-0.,0.,-1.));
#170 = DIRECTION('',(-0.,-1.,0.));
#171 = FACE_BOUND('',#172,.F.);
#172 = EDGE_LOOP('',(#173,#184,#193));
#173 = ORIENTED_EDGE('',*,*,#174,.T.);
#174 = EDGE_CURVE('',#175,#177,#179,.T.);
#175 = VERTEX_POINT('',#176);
#176 = CARTESIAN_POINT('',(30.51556,7.62254,0.));
#177 = VERTEX_POINT('',#178);
#178 = CARTESIAN_POINT('',(30.260943581634,7.695172636057,0.));
#179 = CIRCLE('',#180,0.4826);
#180 = AXIS2_PLACEMENT_3D('',#181,#182,#183);
#181 = CARTESIAN_POINT('',(30.51556,8.10514,0.));
#182 = DIRECTION('',(-0.,0.,-1.));
#183 = DIRECTION('',(-0.,-1.,0.));
#184 = ORIENTED_EDGE('',*,*,#185,.T.);
#185 = EDGE_CURVE('',#177,#186,#188,.T.);
#186 = VERTEX_POINT('',#187);
#187 = CARTESIAN_POINT('',(30.757476418366,8.522727363943,0.));
#188 = CIRCLE('',#189,0.4826);
#189 = AXIS2_PLACEMENT_3D('',#190,#191,#192);
#190 = CARTESIAN_POINT('',(30.50286,8.11276,0.));
#191 = DIRECTION('',(-0.,0.,-1.));
#192 = DIRECTION('',(-0.,-1.,0.));
#193 = ORIENTED_EDGE('',*,*,#194,.T.);
#194 = EDGE_CURVE('',#186,#175,#195,.T.);
#195 = CIRCLE('',#196,0.4826);
#196 = AXIS2_PLACEMENT_3D('',#197,#198,#199);
#197 = CARTESIAN_POINT('',(30.51556,8.10514,0.));
#198 = DIRECTION('',(-0.,0.,-1.));
#199 = DIRECTION('',(-0.,-1.,0.));
#200 = FACE_BOUND('',#201,.F.);
#201 = EDGE_LOOP('',(#202));
#202 = ORIENTED_EDGE('',*,*,#203,.T.);
#203 = EDGE_CURVE('',#204,#204,#206,.T.);
#204 = VERTEX_POINT('',#205);
#205 = CARTESIAN_POINT('',(49.81448,7.62254,0.));
#206 = CIRCLE('',#207,0.4826);
#207 = AXIS2_PLACEMENT_3D('',#208,#209,#210);
#208 = CARTESIAN_POINT('',(49.81448,8.10514,0.));
#209 = DIRECTION('',(-0.,0.,-1.));
#210 = DIRECTION('',(-0.,-1.,0.));
#211 = FACE_BOUND('',#212,.F.);
#212 = EDGE_LOOP('',(#213));
#213 = ORIENTED_EDGE('',*,*,#214,.T.);
#214 = EDGE_CURVE('',#215,#215,#217,.T.);
#215 = VERTEX_POINT('',#216);
#216 = CARTESIAN_POINT('',(57.81548,1.006045,0.));
#217 = CIRCLE('',#218,1.599995);
#218 = AXIS2_PLACEMENT_3D('',#219,#220,#221);
#219 = CARTESIAN_POINT('',(57.81548,2.60604,0.));
#220 = DIRECTION('',(-0.,0.,-1.));
#221 = DIRECTION('',(-0.,-1.,0.));
#222 = FACE_BOUND('',#223,.F.);
#223 = EDGE_LOOP('',(#224));
#224 = ORIENTED_EDGE('',*,*,#225,.T.);
#225 = EDGE_CURVE('',#226,#226,#228,.T.);
#226 = VERTEX_POINT('',#227);
#227 = CARTESIAN_POINT('',(11.20394,80.12938,0.));
#228 = CIRCLE('',#229,0.4826);
#229 = AXIS2_PLACEMENT_3D('',#230,#231,#232);
#230 = CARTESIAN_POINT('',(11.20394,80.61198,0.));
#231 = DIRECTION('',(-0.,0.,-1.));
#232 = DIRECTION('',(-0.,-1.,0.));
#233 = FACE_BOUND('',#234,.F.);
#234 = EDGE_LOOP('',(#235));
#235 = ORIENTED_EDGE('',*,*,#236,.T.);
#236 = EDGE_CURVE('',#237,#237,#239,.T.);
#237 = VERTEX_POINT('',#238);
#238 = CARTESIAN_POINT('',(3.81508,99.006865,0.));
#239 = CIRCLE('',#240,1.599995);
#240 = AXIS2_PLACEMENT_3D('',#241,#242,#243);
#241 = CARTESIAN_POINT('',(3.81508,100.60686,0.));
#242 = DIRECTION('',(-0.,0.,-1.));
#243 = DIRECTION('',(-0.,-1.,0.));
#244 = FACE_BOUND('',#245,.F.);
#245 = EDGE_LOOP('',(#246,#257,#266));
#246 = ORIENTED_EDGE('',*,*,#247,.T.);
#247 = EDGE_CURVE('',#248,#250,#252,.T.);
#248 = VERTEX_POINT('',#249);
#249 = CARTESIAN_POINT('',(30.51556,80.12176,0.));
#250 = VERTEX_POINT('',#251);
#251 = CARTESIAN_POINT('',(30.220945066874,80.222123422499,0.));
#252 = CIRCLE('',#253,0.4826);
#253 = AXIS2_PLACEMENT_3D('',#254,#255,#256);
#254 = CARTESIAN_POINT('',(30.51556,80.60436,0.));
#255 = DIRECTION('',(-0.,0.,-1.));
#256 = DIRECTION('',(-0.,-1.,0.));
#257 = ORIENTED_EDGE('',*,*,#258,.T.);
#258 = EDGE_CURVE('',#250,#259,#261,.T.);
#259 = VERTEX_POINT('',#260);
#260 = CARTESIAN_POINT('',(30.800014933126,80.994216577501,0.));
#261 = CIRCLE('',#262,0.4826);
#262 = AXIS2_PLACEMENT_3D('',#263,#264,#265);
#263 = CARTESIAN_POINT('',(30.5054,80.61198,0.));
#264 = DIRECTION('',(-0.,0.,-1.));
#265 = DIRECTION('',(-0.,-1.,0.));
#266 = ORIENTED_EDGE('',*,*,#267,.T.);
#267 = EDGE_CURVE('',#259,#248,#268,.T.);
#268 = CIRCLE('',#269,0.4826);
#269 = AXIS2_PLACEMENT_3D('',#270,#271,#272);
#270 = CARTESIAN_POINT('',(30.51556,80.60436,0.));
#271 = DIRECTION('',(-0.,0.,-1.));
#272 = DIRECTION('',(-0.,-1.,0.));
#273 = FACE_BOUND('',#274,.F.);
#274 = EDGE_LOOP('',(#275));
#275 = ORIENTED_EDGE('',*,*,#276,.T.);
#276 = EDGE_CURVE('',#277,#277,#279,.T.);
#277 = VERTEX_POINT('',#278);
#278 = CARTESIAN_POINT('',(21.81606,96.09836,0.));
#279 = CIRCLE('',#280,0.508);
#280 = AXIS2_PLACEMENT_3D('',#281,#282,#283);
#281 = CARTESIAN_POINT('',(21.81606,96.60636,0.));
#282 = DIRECTION('',(-0.,0.,-1.));
#283 = DIRECTION('',(-0.,-1.,0.));
#284 = FACE_BOUND('',#285,.F.);
#285 = EDGE_LOOP('',(#286));
#286 = ORIENTED_EDGE('',*,*,#287,.T.);
#287 = EDGE_CURVE('',#288,#288,#290,.T.);
#288 = VERTEX_POINT('',#289);
#289 = CARTESIAN_POINT('',(26.89606,96.09836,0.));
#290 = CIRCLE('',#291,0.508);
#291 = AXIS2_PLACEMENT_3D('',#292,#293,#294);
#292 = CARTESIAN_POINT('',(26.89606,96.60636,0.));
#293 = DIRECTION('',(-0.,0.,-1.));
#294 = DIRECTION('',(-0.,-1.,0.));
#295 = FACE_BOUND('',#296,.F.);
#296 = EDGE_LOOP('',(#297));
#297 = ORIENTED_EDGE('',*,*,#298,.T.);
#298 = EDGE_CURVE('',#299,#299,#301,.T.);
#299 = VERTEX_POINT('',#300);
#300 = CARTESIAN_POINT('',(33.81502,96.09836,0.));
#301 = CIRCLE('',#302,0.508);
#302 = AXIS2_PLACEMENT_3D('',#303,#304,#305);
#303 = CARTESIAN_POINT('',(33.81502,96.60636,0.));
#304 = DIRECTION('',(-0.,0.,-1.));
#305 = DIRECTION('',(-1.398706172756E-14,-1.,0.));
#306 = FACE_BOUND('',#307,.F.);
#307 = EDGE_LOOP('',(#308));
#308 = ORIENTED_EDGE('',*,*,#309,.T.);
#309 = EDGE_CURVE('',#310,#310,#312,.T.);
#310 = VERTEX_POINT('',#311);
#311 = CARTESIAN_POINT('',(38.89502,96.09836,0.));
#312 = CIRCLE('',#313,0.508);
#313 = AXIS2_PLACEMENT_3D('',#314,#315,#316);
#314 = CARTESIAN_POINT('',(38.89502,96.60636,0.));
#315 = DIRECTION('',(-0.,0.,-1.));
#316 = DIRECTION('',(-0.,-1.,0.));
#317 = FACE_BOUND('',#318,.F.);
#318 = EDGE_LOOP('',(#319));
#319 = ORIENTED_EDGE('',*,*,#320,.T.);
#320 = EDGE_CURVE('',#321,#321,#323,.T.);
#321 = VERTEX_POINT('',#322);
#322 = CARTESIAN_POINT('',(49.81448,80.12176,0.));
#323 = CIRCLE('',#324,0.4826);
#324 = AXIS2_PLACEMENT_3D('',#325,#326,#327);
#325 = CARTESIAN_POINT('',(49.81448,80.60436,0.));
#326 = DIRECTION('',(-0.,0.,-1.));
#327 = DIRECTION('',(-0.,-1.,0.));
#328 = FACE_BOUND('',#329,.F.);
#329 = EDGE_LOOP('',(#330));
#330 = ORIENTED_EDGE('',*,*,#331,.T.);
#331 = EDGE_CURVE('',#332,#332,#334,.T.);
#332 = VERTEX_POINT('',#333);
#333 = CARTESIAN_POINT('',(57.81548,99.006865,0.));
#334 = CIRCLE('',#335,1.599995);
#335 = AXIS2_PLACEMENT_3D('',#336,#337,#338);
#336 = CARTESIAN_POINT('',(57.81548,100.60686,0.));
#337 = DIRECTION('',(-0.,0.,-1.));
#338 = DIRECTION('',(-0.,-1.,0.));
#339 = PLANE('',#340);
#340 = AXIS2_PLACEMENT_3D('',#341,#342,#343);
#341 = CARTESIAN_POINT('',(0.,0.,0.));
#342 = DIRECTION('',(0.,0.,1.));
#343 = DIRECTION('',(1.,0.,-0.));
#344 = ADVANCED_FACE('',(#345,#356,#367,#378,#407,#418,#429,#440,#451,
    #480,#491,#502,#513,#524,#535),#546,.T.);
#345 = FACE_BOUND('',#346,.T.);
#346 = EDGE_LOOP('',(#347,#348,#349,#355));
#347 = ORIENTED_EDGE('',*,*,#49,.F.);
#348 = ORIENTED_EDGE('',*,*,#89,.F.);
#349 = ORIENTED_EDGE('',*,*,#350,.F.);
#350 = EDGE_CURVE('',#112,#82,#351,.T.);
#351 = LINE('',#352,#353);
#352 = CARTESIAN_POINT('',(0.1016,103.6574,20.91));
#353 = VECTOR('',#354,1.);
#354 = DIRECTION('',(1.,0.,0.));
#355 = ORIENTED_EDGE('',*,*,#111,.F.);
#356 = FACE_BOUND('',#357,.T.);
#357 = EDGE_LOOP('',(#358));
#358 = ORIENTED_EDGE('',*,*,#359,.T.);
#359 = EDGE_CURVE('',#360,#360,#362,.T.);
#360 = VERTEX_POINT('',#361);
#361 = CARTESIAN_POINT('',(3.81508,1.006045,20.91));
#362 = CIRCLE('',#363,1.599995);
#363 = AXIS2_PLACEMENT_3D('',#364,#365,#366);
#364 = CARTESIAN_POINT('',(3.81508,2.60604,20.91));
#365 = DIRECTION('',(-0.,0.,-1.));
#366 = DIRECTION('',(-0.,-1.,0.));
#367 = FACE_BOUND('',#368,.T.);
#368 = EDGE_LOOP('',(#369));
#369 = ORIENTED_EDGE('',*,*,#370,.T.);
#370 = EDGE_CURVE('',#371,#371,#373,.T.);
#371 = VERTEX_POINT('',#372);
#372 = CARTESIAN_POINT('',(11.20394,7.63016,20.91));
#373 = CIRCLE('',#374,0.4826);
#374 = AXIS2_PLACEMENT_3D('',#375,#376,#377);
#375 = CARTESIAN_POINT('',(11.20394,8.11276,20.91));
#376 = DIRECTION('',(-0.,0.,-1.));
#377 = DIRECTION('',(-0.,-1.,0.));
#378 = FACE_BOUND('',#379,.T.);
#379 = EDGE_LOOP('',(#380,#391,#400));
#380 = ORIENTED_EDGE('',*,*,#381,.T.);
#381 = EDGE_CURVE('',#382,#384,#386,.T.);
#382 = VERTEX_POINT('',#383);
#383 = CARTESIAN_POINT('',(30.51556,7.62254,20.91));
#384 = VERTEX_POINT('',#385);
#385 = CARTESIAN_POINT('',(30.260943581634,7.695172636057,20.91));
#386 = CIRCLE('',#387,0.4826);
#387 = AXIS2_PLACEMENT_3D('',#388,#389,#390);
#388 = CARTESIAN_POINT('',(30.51556,8.10514,20.91));
#389 = DIRECTION('',(-0.,0.,-1.));
#390 = DIRECTION('',(-0.,-1.,0.));
#391 = ORIENTED_EDGE('',*,*,#392,.T.);
#392 = EDGE_CURVE('',#384,#393,#395,.T.);
#393 = VERTEX_POINT('',#394);
#394 = CARTESIAN_POINT('',(30.757476418366,8.522727363943,20.91));
#395 = CIRCLE('',#396,0.4826);
#396 = AXIS2_PLACEMENT_3D('',#397,#398,#399);
#397 = CARTESIAN_POINT('',(30.50286,8.11276,20.91));
#398 = DIRECTION('',(-0.,0.,-1.));
#399 = DIRECTION('',(-0.,-1.,0.));
#400 = ORIENTED_EDGE('',*,*,#401,.T.);
#401 = EDGE_CURVE('',#393,#382,#402,.T.);
#402 = CIRCLE('',#403,0.4826);
#403 = AXIS2_PLACEMENT_3D('',#404,#405,#406);
#404 = CARTESIAN_POINT('',(30.51556,8.10514,20.91));
#405 = DIRECTION('',(-0.,0.,-1.));
#406 = DIRECTION('',(-0.,-1.,0.));
#407 = FACE_BOUND('',#408,.T.);
#408 = EDGE_LOOP('',(#409));
#409 = ORIENTED_EDGE('',*,*,#410,.T.);
#410 = EDGE_CURVE('',#411,#411,#413,.T.);
#411 = VERTEX_POINT('',#412);
#412 = CARTESIAN_POINT('',(49.81448,7.62254,20.91));
#413 = CIRCLE('',#414,0.4826);
#414 = AXIS2_PLACEMENT_3D('',#415,#416,#417);
#415 = CARTESIAN_POINT('',(49.81448,8.10514,20.91));
#416 = DIRECTION('',(-0.,0.,-1.));
#417 = DIRECTION('',(-0.,-1.,0.));
#418 = FACE_BOUND('',#419,.T.);
#419 = EDGE_LOOP('',(#420));
#420 = ORIENTED_EDGE('',*,*,#421,.T.);
#421 = EDGE_CURVE('',#422,#422,#424,.T.);
#422 = VERTEX_POINT('',#423);
#423 = CARTESIAN_POINT('',(57.81548,1.006045,20.91));
#424 = CIRCLE('',#425,1.599995);
#425 = AXIS2_PLACEMENT_3D('',#426,#427,#428);
#426 = CARTESIAN_POINT('',(57.81548,2.60604,20.91));
#427 = DIRECTION('',(-0.,0.,-1.));
#428 = DIRECTION('',(-0.,-1.,0.));
#429 = FACE_BOUND('',#430,.T.);
#430 = EDGE_LOOP('',(#431));
#431 = ORIENTED_EDGE('',*,*,#432,.T.);
#432 = EDGE_CURVE('',#433,#433,#435,.T.);
#433 = VERTEX_POINT('',#434);
#434 = CARTESIAN_POINT('',(11.20394,80.12938,20.91));
#435 = CIRCLE('',#436,0.4826);
#436 = AXIS2_PLACEMENT_3D('',#437,#438,#439);
#437 = CARTESIAN_POINT('',(11.20394,80.61198,20.91));
#438 = DIRECTION('',(-0.,0.,-1.));
#439 = DIRECTION('',(-0.,-1.,0.));
#440 = FACE_BOUND('',#441,.T.);
#441 = EDGE_LOOP('',(#442));
#442 = ORIENTED_EDGE('',*,*,#443,.T.);
#443 = EDGE_CURVE('',#444,#444,#446,.T.);
#444 = VERTEX_POINT('',#445);
#445 = CARTESIAN_POINT('',(3.81508,99.006865,20.91));
#446 = CIRCLE('',#447,1.599995);
#447 = AXIS2_PLACEMENT_3D('',#448,#449,#450);
#448 = CARTESIAN_POINT('',(3.81508,100.60686,20.91));
#449 = DIRECTION('',(-0.,0.,-1.));
#450 = DIRECTION('',(-0.,-1.,0.));
#451 = FACE_BOUND('',#452,.T.);
#452 = EDGE_LOOP('',(#453,#464,#473));
#453 = ORIENTED_EDGE('',*,*,#454,.T.);
#454 = EDGE_CURVE('',#455,#457,#459,.T.);
#455 = VERTEX_POINT('',#456);
#456 = CARTESIAN_POINT('',(30.51556,80.12176,20.91));
#457 = VERTEX_POINT('',#458);
#458 = CARTESIAN_POINT('',(30.220945066874,80.222123422499,20.91));
#459 = CIRCLE('',#460,0.4826);
#460 = AXIS2_PLACEMENT_3D('',#461,#462,#463);
#461 = CARTESIAN_POINT('',(30.51556,80.60436,20.91));
#462 = DIRECTION('',(-0.,0.,-1.));
#463 = DIRECTION('',(-0.,-1.,0.));
#464 = ORIENTED_EDGE('',*,*,#465,.T.);
#465 = EDGE_CURVE('',#457,#466,#468,.T.);
#466 = VERTEX_POINT('',#467);
#467 = CARTESIAN_POINT('',(30.800014933126,80.994216577501,20.91));
#468 = CIRCLE('',#469,0.4826);
#469 = AXIS2_PLACEMENT_3D('',#470,#471,#472);
#470 = CARTESIAN_POINT('',(30.5054,80.61198,20.91));
#471 = DIRECTION('',(-0.,0.,-1.));
#472 = DIRECTION('',(-0.,-1.,0.));
#473 = ORIENTED_EDGE('',*,*,#474,.T.);
#474 = EDGE_CURVE('',#466,#455,#475,.T.);
#475 = CIRCLE('',#476,0.4826);
#476 = AXIS2_PLACEMENT_3D('',#477,#478,#479);
#477 = CARTESIAN_POINT('',(30.51556,80.60436,20.91));
#478 = DIRECTION('',(-0.,0.,-1.));
#479 = DIRECTION('',(-0.,-1.,0.));
#480 = FACE_BOUND('',#481,.T.);
#481 = EDGE_LOOP('',(#482));
#482 = ORIENTED_EDGE('',*,*,#483,.T.);
#483 = EDGE_CURVE('',#484,#484,#486,.T.);
#484 = VERTEX_POINT('',#485);
#485 = CARTESIAN_POINT('',(21.81606,96.09836,20.91));
#486 = CIRCLE('',#487,0.508);
#487 = AXIS2_PLACEMENT_3D('',#488,#489,#490);
#488 = CARTESIAN_POINT('',(21.81606,96.60636,20.91));
#489 = DIRECTION('',(-0.,0.,-1.));
#490 = DIRECTION('',(-0.,-1.,0.));
#491 = FACE_BOUND('',#492,.T.);
#492 = EDGE_LOOP('',(#493));
#493 = ORIENTED_EDGE('',*,*,#494,.T.);
#494 = EDGE_CURVE('',#495,#495,#497,.T.);
#495 = VERTEX_POINT('',#496);
#496 = CARTESIAN_POINT('',(26.89606,96.09836,20.91));
#497 = CIRCLE('',#498,0.508);
#498 = AXIS2_PLACEMENT_3D('',#499,#500,#501);
#499 = CARTESIAN_POINT('',(26.89606,96.60636,20.91));
#500 = DIRECTION('',(-0.,0.,-1.));
#501 = DIRECTION('',(-0.,-1.,0.));
#502 = FACE_BOUND('',#503,.T.);
#503 = EDGE_LOOP('',(#504));
#504 = ORIENTED_EDGE('',*,*,#505,.T.);
#505 = EDGE_CURVE('',#506,#506,#508,.T.);
#506 = VERTEX_POINT('',#507);
#507 = CARTESIAN_POINT('',(33.81502,96.09836,20.91));
#508 = CIRCLE('',#509,0.508);
#509 = AXIS2_PLACEMENT_3D('',#510,#511,#512);
#510 = CARTESIAN_POINT('',(33.81502,96.60636,20.91));
#511 = DIRECTION('',(-0.,0.,-1.));
#512 = DIRECTION('',(-1.398706172756E-14,-1.,0.));
#513 = FACE_BOUND('',#514,.T.);
#514 = EDGE_LOOP('',(#515));
#515 = ORIENTED_EDGE('',*,*,#516,.T.);
#516 = EDGE_CURVE('',#517,#517,#519,.T.);
#517 = VERTEX_POINT('',#518);
#518 = CARTESIAN_POINT('',(38.89502,96.09836,20.91));
#519 = CIRCLE('',#520,0.508);
#520 = AXIS2_PLACEMENT_3D('',#521,#522,#523);
#521 = CARTESIAN_POINT('',(38.89502,96.60636,20.91));
#522 = DIRECTION('',(-0.,0.,-1.));
#523 = DIRECTION('',(-0.,-1.,0.));
#524 = FACE_BOUND('',#525,.T.);
#525 = EDGE_LOOP('',(#526));
#526 = ORIENTED_EDGE('',*,*,#527,.T.);
#527 = EDGE_CURVE('',#528,#528,#530,.T.);
#528 = VERTEX_POINT('',#529);
#529 = CARTESIAN_POINT('',(49.81448,80.12176,20.91));
#530 = CIRCLE('',#531,0.4826);
#531 = AXIS2_PLACEMENT_3D('',#532,#533,#534);
#532 = CARTESIAN_POINT('',(49.81448,80.60436,20.91));
#533 = DIRECTION('',(-0.,0.,-1.));
#534 = DIRECTION('',(-0.,-1.,0.));
#535 = FACE_BOUND('',#536,.T.);
#536 = EDGE_LOOP('',(#537));
#537 = ORIENTED_EDGE('',*,*,#538,.T.);
#538 = EDGE_CURVE('',#539,#539,#541,.T.);
#539 = VERTEX_POINT('',#540);
#540 = CARTESIAN_POINT('',(57.81548,99.006865,20.91));
#541 = CIRCLE('',#542,1.599995);
#542 = AXIS2_PLACEMENT_3D('',#543,#544,#545);
#543 = CARTESIAN_POINT('',(57.81548,100.60686,20.91));
#544 = DIRECTION('',(-0.,0.,-1.));
#545 = DIRECTION('',(-0.,-1.,0.));
#546 = PLANE('',#547);
#547 = AXIS2_PLACEMENT_3D('',#548,#549,#550);
#548 = CARTESIAN_POINT('',(0.,0.,20.91));
#549 = DIRECTION('',(0.,0.,1.));
#550 = DIRECTION('',(1.,0.,-0.));
#551 = ADVANCED_FACE('',(#552),#558,.T.);
#552 = FACE_BOUND('',#553,.T.);
#553 = EDGE_LOOP('',(#554,#555,#556,#557));
#554 = ORIENTED_EDGE('',*,*,#119,.T.);
#555 = ORIENTED_EDGE('',*,*,#350,.T.);
#556 = ORIENTED_EDGE('',*,*,#79,.F.);
#557 = ORIENTED_EDGE('',*,*,#143,.F.);
#558 = PLANE('',#559);
#559 = AXIS2_PLACEMENT_3D('',#560,#561,#562);
#560 = CARTESIAN_POINT('',(0.1016,103.6574,0.));
#561 = DIRECTION('',(0.,1.,0.));
#562 = DIRECTION('',(1.,0.,0.));
#563 = ADVANCED_FACE('',(#564),#575,.F.);
#564 = FACE_BOUND('',#565,.T.);
#565 = EDGE_LOOP('',(#566,#567,#573,#574));
#566 = ORIENTED_EDGE('',*,*,#152,.T.);
#567 = ORIENTED_EDGE('',*,*,#568,.T.);
#568 = EDGE_CURVE('',#153,#360,#569,.T.);
#569 = LINE('',#570,#571);
#570 = CARTESIAN_POINT('',(3.81508,1.006045,-3.6E-02));
#571 = VECTOR('',#572,1.);
#572 = DIRECTION('',(0.,0.,1.));
#573 = ORIENTED_EDGE('',*,*,#359,.F.);
#574 = ORIENTED_EDGE('',*,*,#568,.F.);
#575 = CYLINDRICAL_SURFACE('',#576,1.599995);
#576 = AXIS2_PLACEMENT_3D('',#577,#578,#579);
#577 = CARTESIAN_POINT('',(3.81508,2.60604,-3.6E-02));
#578 = DIRECTION('',(-0.,-0.,-1.));
#579 = DIRECTION('',(-0.,-1.,0.));
#580 = ADVANCED_FACE('',(#581),#592,.F.);
#581 = FACE_BOUND('',#582,.T.);
#582 = EDGE_LOOP('',(#583,#584,#590,#591));
#583 = ORIENTED_EDGE('',*,*,#163,.T.);
#584 = ORIENTED_EDGE('',*,*,#585,.T.);
#585 = EDGE_CURVE('',#164,#371,#586,.T.);
#586 = LINE('',#587,#588);
#587 = CARTESIAN_POINT('',(11.20394,7.63016,-3.6E-02));
#588 = VECTOR('',#589,1.);
#589 = DIRECTION('',(0.,0.,1.));
#590 = ORIENTED_EDGE('',*,*,#370,.F.);
#591 = ORIENTED_EDGE('',*,*,#585,.F.);
#592 = CYLINDRICAL_SURFACE('',#593,0.4826);
#593 = AXIS2_PLACEMENT_3D('',#594,#595,#596);
#594 = CARTESIAN_POINT('',(11.20394,8.11276,-3.6E-02));
#595 = DIRECTION('',(-0.,-0.,-1.));
#596 = DIRECTION('',(-0.,-1.,0.));
#597 = ADVANCED_FACE('',(#598),#614,.F.);
#598 = FACE_BOUND('',#599,.T.);
#599 = EDGE_LOOP('',(#600,#606,#607,#613));
#600 = ORIENTED_EDGE('',*,*,#601,.F.);
#601 = EDGE_CURVE('',#175,#382,#602,.T.);
#602 = LINE('',#603,#604);
#603 = CARTESIAN_POINT('',(30.51556,7.62254,-3.6E-02));
#604 = VECTOR('',#605,1.);
#605 = DIRECTION('',(0.,0.,1.));
#606 = ORIENTED_EDGE('',*,*,#174,.T.);
#607 = ORIENTED_EDGE('',*,*,#608,.F.);
#608 = EDGE_CURVE('',#384,#177,#609,.T.);
#609 = LINE('',#610,#611);
#610 = CARTESIAN_POINT('',(30.260943581634,7.695172636057,-3.6E-02));
#611 = VECTOR('',#612,1.);
#612 = DIRECTION('',(-0.,-0.,-1.));
#613 = ORIENTED_EDGE('',*,*,#381,.F.);
#614 = CYLINDRICAL_SURFACE('',#615,0.4826);
#615 = AXIS2_PLACEMENT_3D('',#616,#617,#618);
#616 = CARTESIAN_POINT('',(30.51556,8.10514,-3.6E-02));
#617 = DIRECTION('',(-0.,-0.,-1.));
#618 = DIRECTION('',(-0.,-1.,0.));
#619 = ADVANCED_FACE('',(#620),#631,.F.);
#620 = FACE_BOUND('',#621,.T.);
#621 = EDGE_LOOP('',(#622,#623,#624,#625));
#622 = ORIENTED_EDGE('',*,*,#194,.T.);
#623 = ORIENTED_EDGE('',*,*,#601,.T.);
#624 = ORIENTED_EDGE('',*,*,#401,.F.);
#625 = ORIENTED_EDGE('',*,*,#626,.T.);
#626 = EDGE_CURVE('',#393,#186,#627,.T.);
#627 = LINE('',#628,#629);
#628 = CARTESIAN_POINT('',(30.757476418366,8.522727363943,-3.6E-02));
#629 = VECTOR('',#630,1.);
#630 = DIRECTION('',(-0.,-0.,-1.));
#631 = CYLINDRICAL_SURFACE('',#632,0.4826);
#632 = AXIS2_PLACEMENT_3D('',#633,#634,#635);
#633 = CARTESIAN_POINT('',(30.51556,8.10514,-3.6E-02));
#634 = DIRECTION('',(-0.,-0.,-1.));
#635 = DIRECTION('',(-0.,-1.,0.));
#636 = ADVANCED_FACE('',(#637),#643,.F.);
#637 = FACE_BOUND('',#638,.T.);
#638 = EDGE_LOOP('',(#639,#640,#641,#642));
#639 = ORIENTED_EDGE('',*,*,#608,.T.);
#640 = ORIENTED_EDGE('',*,*,#185,.T.);
#641 = ORIENTED_EDGE('',*,*,#626,.F.);
#642 = ORIENTED_EDGE('',*,*,#392,.F.);
#643 = CYLINDRICAL_SURFACE('',#644,0.4826);
#644 = AXIS2_PLACEMENT_3D('',#645,#646,#647);
#645 = CARTESIAN_POINT('',(30.50286,8.11276,-3.6E-02));
#646 = DIRECTION('',(-0.,-0.,-1.));
#647 = DIRECTION('',(-0.,-1.,0.));
#648 = ADVANCED_FACE('',(#649),#660,.F.);
#649 = FACE_BOUND('',#650,.T.);
#650 = EDGE_LOOP('',(#651,#652,#658,#659));
#651 = ORIENTED_EDGE('',*,*,#203,.T.);
#652 = ORIENTED_EDGE('',*,*,#653,.T.);
#653 = EDGE_CURVE('',#204,#411,#654,.T.);
#654 = LINE('',#655,#656);
#655 = CARTESIAN_POINT('',(49.81448,7.62254,-3.6E-02));
#656 = VECTOR('',#657,1.);
#657 = DIRECTION('',(0.,0.,1.));
#658 = ORIENTED_EDGE('',*,*,#410,.F.);
#659 = ORIENTED_EDGE('',*,*,#653,.F.);
#660 = CYLINDRICAL_SURFACE('',#661,0.4826);
#661 = AXIS2_PLACEMENT_3D('',#662,#663,#664);
#662 = CARTESIAN_POINT('',(49.81448,8.10514,-3.6E-02));
#663 = DIRECTION('',(-0.,-0.,-1.));
#664 = DIRECTION('',(-0.,-1.,0.));
#665 = ADVANCED_FACE('',(#666),#677,.F.);
#666 = FACE_BOUND('',#667,.T.);
#667 = EDGE_LOOP('',(#668,#669,#675,#676));
#668 = ORIENTED_EDGE('',*,*,#214,.T.);
#669 = ORIENTED_EDGE('',*,*,#670,.T.);
#670 = EDGE_CURVE('',#215,#422,#671,.T.);
#671 = LINE('',#672,#673);
#672 = CARTESIAN_POINT('',(57.81548,1.006045,-3.6E-02));
#673 = VECTOR('',#674,1.);
#674 = DIRECTION('',(0.,0.,1.));
#675 = ORIENTED_EDGE('',*,*,#421,.F.);
#676 = ORIENTED_EDGE('',*,*,#670,.F.);
#677 = CYLINDRICAL_SURFACE('',#678,1.599995);
#678 = AXIS2_PLACEMENT_3D('',#679,#680,#681);
#679 = CARTESIAN_POINT('',(57.81548,2.60604,-3.6E-02));
#680 = DIRECTION('',(-0.,-0.,-1.));
#681 = DIRECTION('',(-0.,-1.,0.));
#682 = ADVANCED_FACE('',(#683),#694,.F.);
#683 = FACE_BOUND('',#684,.T.);
#684 = EDGE_LOOP('',(#685,#686,#692,#693));
#685 = ORIENTED_EDGE('',*,*,#225,.T.);
#686 = ORIENTED_EDGE('',*,*,#687,.T.);
#687 = EDGE_CURVE('',#226,#433,#688,.T.);
#688 = LINE('',#689,#690);
#689 = CARTESIAN_POINT('',(11.20394,80.12938,-3.6E-02));
#690 = VECTOR('',#691,1.);
#691 = DIRECTION('',(0.,0.,1.));
#692 = ORIENTED_EDGE('',*,*,#432,.F.);
#693 = ORIENTED_EDGE('',*,*,#687,.F.);
#694 = CYLINDRICAL_SURFACE('',#695,0.4826);
#695 = AXIS2_PLACEMENT_3D('',#696,#697,#698);
#696 = CARTESIAN_POINT('',(11.20394,80.61198,-3.6E-02));
#697 = DIRECTION('',(-0.,-0.,-1.));
#698 = DIRECTION('',(-0.,-1.,0.));
#699 = ADVANCED_FACE('',(#700),#711,.F.);
#700 = FACE_BOUND('',#701,.T.);
#701 = EDGE_LOOP('',(#702,#703,#709,#710));
#702 = ORIENTED_EDGE('',*,*,#236,.T.);
#703 = ORIENTED_EDGE('',*,*,#704,.T.);
#704 = EDGE_CURVE('',#237,#444,#705,.T.);
#705 = LINE('',#706,#707);
#706 = CARTESIAN_POINT('',(3.81508,99.006865,-3.6E-02));
#707 = VECTOR('',#708,1.);
#708 = DIRECTION('',(0.,0.,1.));
#709 = ORIENTED_EDGE('',*,*,#443,.F.);
#710 = ORIENTED_EDGE('',*,*,#704,.F.);
#711 = CYLINDRICAL_SURFACE('',#712,1.599995);
#712 = AXIS2_PLACEMENT_3D('',#713,#714,#715);
#713 = CARTESIAN_POINT('',(3.81508,100.60686,-3.6E-02));
#714 = DIRECTION('',(-0.,-0.,-1.));
#715 = DIRECTION('',(-0.,-1.,0.));
#716 = ADVANCED_FACE('',(#717),#733,.F.);
#717 = FACE_BOUND('',#718,.T.);
#718 = EDGE_LOOP('',(#719,#725,#726,#732));
#719 = ORIENTED_EDGE('',*,*,#720,.F.);
#720 = EDGE_CURVE('',#248,#455,#721,.T.);
#721 = LINE('',#722,#723);
#722 = CARTESIAN_POINT('',(30.51556,80.12176,-3.6E-02));
#723 = VECTOR('',#724,1.);
#724 = DIRECTION('',(0.,0.,1.));
#725 = ORIENTED_EDGE('',*,*,#247,.T.);
#726 = ORIENTED_EDGE('',*,*,#727,.F.);
#727 = EDGE_CURVE('',#457,#250,#728,.T.);
#728 = LINE('',#729,#730);
#729 = CARTESIAN_POINT('',(30.220945066874,80.222123422499,-3.6E-02));
#730 = VECTOR('',#731,1.);
#731 = DIRECTION('',(-0.,-0.,-1.));
#732 = ORIENTED_EDGE('',*,*,#454,.F.);
#733 = CYLINDRICAL_SURFACE('',#734,0.4826);
#734 = AXIS2_PLACEMENT_3D('',#735,#736,#737);
#735 = CARTESIAN_POINT('',(30.51556,80.60436,-3.6E-02));
#736 = DIRECTION('',(-0.,-0.,-1.));
#737 = DIRECTION('',(-0.,-1.,0.));
#738 = ADVANCED_FACE('',(#739),#750,.F.);
#739 = FACE_BOUND('',#740,.T.);
#740 = EDGE_LOOP('',(#741,#742,#743,#744));
#741 = ORIENTED_EDGE('',*,*,#267,.T.);
#742 = ORIENTED_EDGE('',*,*,#720,.T.);
#743 = ORIENTED_EDGE('',*,*,#474,.F.);
#744 = ORIENTED_EDGE('',*,*,#745,.T.);
#745 = EDGE_CURVE('',#466,#259,#746,.T.);
#746 = LINE('',#747,#748);
#747 = CARTESIAN_POINT('',(30.800014933126,80.994216577501,-3.6E-02));
#748 = VECTOR('',#749,1.);
#749 = DIRECTION('',(-0.,-0.,-1.));
#750 = CYLINDRICAL_SURFACE('',#751,0.4826);
#751 = AXIS2_PLACEMENT_3D('',#752,#753,#754);
#752 = CARTESIAN_POINT('',(30.51556,80.60436,-3.6E-02));
#753 = DIRECTION('',(-0.,-0.,-1.));
#754 = DIRECTION('',(-0.,-1.,0.));
#755 = ADVANCED_FACE('',(#756),#762,.F.);
#756 = FACE_BOUND('',#757,.T.);
#757 = EDGE_LOOP('',(#758,#759,#760,#761));
#758 = ORIENTED_EDGE('',*,*,#727,.T.);
#759 = ORIENTED_EDGE('',*,*,#258,.T.);
#760 = ORIENTED_EDGE('',*,*,#745,.F.);
#761 = ORIENTED_EDGE('',*,*,#465,.F.);
#762 = CYLINDRICAL_SURFACE('',#763,0.4826);
#763 = AXIS2_PLACEMENT_3D('',#764,#765,#766);
#764 = CARTESIAN_POINT('',(30.5054,80.61198,-3.6E-02));
#765 = DIRECTION('',(-0.,-0.,-1.));
#766 = DIRECTION('',(-0.,-1.,0.));
#767 = ADVANCED_FACE('',(#768),#779,.F.);
#768 = FACE_BOUND('',#769,.T.);
#769 = EDGE_LOOP('',(#770,#771,#777,#778));
#770 = ORIENTED_EDGE('',*,*,#276,.T.);
#771 = ORIENTED_EDGE('',*,*,#772,.T.);
#772 = EDGE_CURVE('',#277,#484,#773,.T.);
#773 = LINE('',#774,#775);
#774 = CARTESIAN_POINT('',(21.81606,96.09836,-3.6E-02));
#775 = VECTOR('',#776,1.);
#776 = DIRECTION('',(0.,0.,1.));
#777 = ORIENTED_EDGE('',*,*,#483,.F.);
#778 = ORIENTED_EDGE('',*,*,#772,.F.);
#779 = CYLINDRICAL_SURFACE('',#780,0.508);
#780 = AXIS2_PLACEMENT_3D('',#781,#782,#783);
#781 = CARTESIAN_POINT('',(21.81606,96.60636,-3.6E-02));
#782 = DIRECTION('',(-0.,-0.,-1.));
#783 = DIRECTION('',(-0.,-1.,0.));
#784 = ADVANCED_FACE('',(#785),#796,.F.);
#785 = FACE_BOUND('',#786,.T.);
#786 = EDGE_LOOP('',(#787,#788,#794,#795));
#787 = ORIENTED_EDGE('',*,*,#287,.T.);
#788 = ORIENTED_EDGE('',*,*,#789,.T.);
#789 = EDGE_CURVE('',#288,#495,#790,.T.);
#790 = LINE('',#791,#792);
#791 = CARTESIAN_POINT('',(26.89606,96.09836,-3.6E-02));
#792 = VECTOR('',#793,1.);
#793 = DIRECTION('',(0.,0.,1.));
#794 = ORIENTED_EDGE('',*,*,#494,.F.);
#795 = ORIENTED_EDGE('',*,*,#789,.F.);
#796 = CYLINDRICAL_SURFACE('',#797,0.508);
#797 = AXIS2_PLACEMENT_3D('',#798,#799,#800);
#798 = CARTESIAN_POINT('',(26.89606,96.60636,-3.6E-02));
#799 = DIRECTION('',(-0.,-0.,-1.));
#800 = DIRECTION('',(-0.,-1.,0.));
#801 = ADVANCED_FACE('',(#802),#813,.F.);
#802 = FACE_BOUND('',#803,.T.);
#803 = EDGE_LOOP('',(#804,#805,#811,#812));
#804 = ORIENTED_EDGE('',*,*,#298,.T.);
#805 = ORIENTED_EDGE('',*,*,#806,.T.);
#806 = EDGE_CURVE('',#299,#506,#807,.T.);
#807 = LINE('',#808,#809);
#808 = CARTESIAN_POINT('',(33.81502,96.09836,-3.6E-02));
#809 = VECTOR('',#810,1.);
#810 = DIRECTION('',(0.,0.,1.));
#811 = ORIENTED_EDGE('',*,*,#505,.F.);
#812 = ORIENTED_EDGE('',*,*,#806,.F.);
#813 = CYLINDRICAL_SURFACE('',#814,0.508);
#814 = AXIS2_PLACEMENT_3D('',#815,#816,#817);
#815 = CARTESIAN_POINT('',(33.81502,96.60636,-3.6E-02));
#816 = DIRECTION('',(-0.,-0.,-1.));
#817 = DIRECTION('',(-1.398706172756E-14,-1.,0.));
#818 = ADVANCED_FACE('',(#819),#830,.F.);
#819 = FACE_BOUND('',#820,.T.);
#820 = EDGE_LOOP('',(#821,#822,#828,#829));
#821 = ORIENTED_EDGE('',*,*,#309,.T.);
#822 = ORIENTED_EDGE('',*,*,#823,.T.);
#823 = EDGE_CURVE('',#310,#517,#824,.T.);
#824 = LINE('',#825,#826);
#825 = CARTESIAN_POINT('',(38.89502,96.09836,-3.6E-02));
#826 = VECTOR('',#827,1.);
#827 = DIRECTION('',(0.,0.,1.));
#828 = ORIENTED_EDGE('',*,*,#516,.F.);
#829 = ORIENTED_EDGE('',*,*,#823,.F.);
#830 = CYLINDRICAL_SURFACE('',#831,0.508);
#831 = AXIS2_PLACEMENT_3D('',#832,#833,#834);
#832 = CARTESIAN_POINT('',(38.89502,96.60636,-3.6E-02));
#833 = DIRECTION('',(-0.,-0.,-1.));
#834 = DIRECTION('',(-0.,-1.,0.));
#835 = ADVANCED_FACE('',(#836),#847,.F.);
#836 = FACE_BOUND('',#837,.T.);
#837 = EDGE_LOOP('',(#838,#839,#845,#846));
#838 = ORIENTED_EDGE('',*,*,#320,.T.);
#839 = ORIENTED_EDGE('',*,*,#840,.T.);
#840 = EDGE_CURVE('',#321,#528,#841,.T.);
#841 = LINE('',#842,#843);
#842 = CARTESIAN_POINT('',(49.81448,80.12176,-3.6E-02));
#843 = VECTOR('',#844,1.);
#844 = DIRECTION('',(0.,0.,1.));
#845 = ORIENTED_EDGE('',*,*,#527,.F.);
#846 = ORIENTED_EDGE('',*,*,#840,.F.);
#847 = CYLINDRICAL_SURFACE('',#848,0.4826);
#848 = AXIS2_PLACEMENT_3D('',#849,#850,#851);
#849 = CARTESIAN_POINT('',(49.81448,80.60436,-3.6E-02));
#850 = DIRECTION('',(-0.,-0.,-1.));
#851 = DIRECTION('',(-0.,-1.,0.));
#852 = ADVANCED_FACE('',(#853),#864,.F.);
#853 = FACE_BOUND('',#854,.T.);
#854 = EDGE_LOOP('',(#855,#856,#862,#863));
#855 = ORIENTED_EDGE('',*,*,#331,.T.);
#856 = ORIENTED_EDGE('',*,*,#857,.T.);
#857 = EDGE_CURVE('',#332,#539,#858,.T.);
#858 = LINE('',#859,#860);
#859 = CARTESIAN_POINT('',(57.81548,99.006865,-3.6E-02));
#860 = VECTOR('',#861,1.);
#861 = DIRECTION('',(0.,0.,1.));
#862 = ORIENTED_EDGE('',*,*,#538,.F.);
#863 = ORIENTED_EDGE('',*,*,#857,.F.);
#864 = CYLINDRICAL_SURFACE('',#865,1.599995);
#865 = AXIS2_PLACEMENT_3D('',#866,#867,#868);
#866 = CARTESIAN_POINT('',(57.81548,100.60686,-3.6E-02));
#867 = DIRECTION('',(-0.,-0.,-1.));
#868 = DIRECTION('',(-0.,-1.,0.));
#869 = ( GEOMETRIC_REPRESENTATION_CONTEXT(3) 
GLOBAL_UNCERTAINTY_ASSIGNED_CONTEXT((#873)) GLOBAL_UNIT_ASSIGNED_CONTEXT
((#870,#871,#872)) REPRESENTATION_CONTEXT('Context #1',
  '3D Context with UNIT and UNCERTAINTY') );
#870 = ( LENGTH_UNIT() NAMED_UNIT(*) SI_UNIT(.MILLI.,.METRE.) );
#871 = ( NAMED_UNIT(*) PLANE_ANGLE_UNIT() SI_UNIT($,.RADIAN.) );
#872 = ( NAMED_UNIT(*) SI_UNIT($,.STERADIAN.) SOLID_ANGLE_UNIT() );
#873 = UNCERTAINTY_MEASURE_WITH_UNIT(LENGTH_MEASURE(1.E-07),#870,
  'distance_accuracy_value','confusion accuracy');
#874 = CONTEXT_DEPENDENT_SHAPE_REPRESENTATION(#875,#877);
#875 = ( REPRESENTATION_RELATIONSHIP('','',#32,#10) 
REPRESENTATION_RELATIONSHIP_WITH_TRANSFORMATION(#876) 
SHAPE_REPRESENTATION_RELATIONSHIP() );
#876 = ITEM_DEFINED_TRANSFORMATION('','',#11,#15);
#877 = PRODUCT_DEFINITION_SHAPE('Placement','Placement of an item',#878
  );
#878 = NEXT_ASSEMBLY_USAGE_OCCURRENCE('1','=>[0:1:1:2]','',#5,#27,$);
#879 = PRODUCT_RELATED_PRODUCT_CATEGORY('part',$,(#29));
#880 = MECHANICAL_DESIGN_GEOMETRIC_PRESENTATION_REPRESENTATION('',(#881)
  ,#869);
#881 = STYLED_ITEM('color',(#882),#33);
#882 = PRESENTATION_STYLE_ASSIGNMENT((#883));
#883 = SURFACE_STYLE_USAGE(.BOTH.,#884);
#884 = SURFACE_SIDE_STYLE('',(#885));
#885 = SURFACE_STYLE_FILL_AREA(#886);
#886 = FILL_AREA_STYLE('',(#887));
#887 = FILL_AREA_STYLE_COLOUR('',#888);
#888 = COLOUR_RGB('',0.313304153717,0.484529207832,0.410020903123);
ENDSEC;
END-ISO-10303-21;
